VIC-WA-NT-Beginner-Regular.ufo
<glyph name="one" format="2">
  <advance width="181"/>
  <unicode hex="0031"/>
  <outline>
    <contour>
      <point x="57" y="0" type="curve" smooth="yes"/>
      <point x="69" y="0"/>
      <point x="82" y="6"/>
      <point x="85" y="23" type="curve" smooth="yes"/>
      <point x="177" y="543" type="line" smooth="yes"/>
      <point x="180" y="560"/>
      <point x="169" y="568"/>
      <point x="156" y="568" type="curve" smooth="yes"/>
      <point x="143" y="568"/>
      <point x="129" y="561"/>
      <point x="126" y="543" type="curve" smooth="yes"/>
      <point x="35" y="28" type="line" smooth="yes"/>
      <point x="32" y="9"/>
      <point x="44" y="0"/>
    </contour>
  </outline>
</glyph>
<glyph name="three" format="2">
  <advance width="429"/>
  <unicode hex="0033"/>
  <outline>
    <contour>
      <point x="129" y="-4" type="curve" smooth="yes"/>
      <point x="265" y="-4"/>
      <point x="386" y="105"/>
      <point x="386" y="226" type="curve" smooth="yes"/>
      <point x="386" y="301"/>
      <point x="338" y="369"/>
      <point x="213" y="341" type="curve"/>
      <point x="209" y="327" type="line"/>
      <point x="330" y="415"/>
      <point x="383" y="458"/>
      <point x="383" y="500" type="curve" smooth="yes"/>
      <point x="383" y="542"/>
      <point x="345" y="568"/>
      <point x="284" y="568" type="curve" smooth="yes"/>
      <point x="236" y="568"/>
      <point x="175" y="551"/>
      <point x="115" y="511" type="curve" smooth="yes"/>
      <point x="90" y="495"/>
      <point x="95" y="478"/>
      <point x="100" y="470" type="curve" smooth="yes"/>
      <point x="106" y="460"/>
      <point x="122" y="455"/>
      <point x="135" y="464" type="curve" smooth="yes"/>
      <point x="196" y="505"/>
      <point x="253" y="522"/>
      <point x="290" y="522" type="curve" smooth="yes"/>
      <point x="317" y="522"/>
      <point x="334" y="512"/>
      <point x="334" y="498" type="curve" smooth="yes"/>
      <point x="334" y="464"/>
      <point x="199" y="366"/>
      <point x="115" y="314" type="curve" smooth="yes"/>
      <point x="98" y="303"/>
      <point x="100" y="288"/>
      <point x="104" y="280" type="curve" smooth="yes"/>
      <point x="109" y="270"/>
      <point x="125" y="266"/>
      <point x="140" y="275" type="curve" smooth="yes"/>
      <point x="187" y="304"/>
      <point x="229" y="305"/>
      <point x="257" y="305" type="curve" smooth="yes"/>
      <point x="316" y="305"/>
      <point x="336" y="266"/>
      <point x="336" y="225" type="curve" smooth="yes"/>
      <point x="336" y="131"/>
      <point x="239" y="42"/>
      <point x="130" y="42" type="curve" smooth="yes"/>
      <point x="106" y="42"/>
      <point x="82" y="49"/>
      <point x="67" y="61" type="curve" smooth="yes"/>
      <point x="43" y="79"/>
      <point x="30" y="74"/>
      <point x="25" y="67" type="curve" smooth="yes"/>
      <point x="20" y="60"/>
      <point x="14" y="45"/>
      <point x="39" y="25" type="curve" smooth="yes"/>
      <point x="61" y="7"/>
      <point x="95" y="-4"/>
    </contour>
  </outline>
</glyph>
<glyph name="eight" format="2">
  <advance width="403"/>
  <unicode hex="0038"/>
  <outline>
    <contour>
      <point x="199" y="45" type="curve" smooth="yes"/>
      <point x="149" y="45"/>
      <point x="111" y="73"/>
      <point x="111" y="137" type="curve" smooth="yes"/>
      <point x="111" y="201"/>
      <point x="144" y="235"/>
      <point x="221" y="291" type="curve" smooth="yes"/>
      <point x="298" y="347"/>
      <point x="381" y="402"/>
      <point x="381" y="464" type="curve" smooth="yes"/>
      <point x="381" y="547"/>
      <point x="309" y="568"/>
      <point x="242" y="568" type="curve" smooth="yes"/>
      <point x="169" y="568"/>
      <point x="91" y="533"/>
      <point x="91" y="448" type="curve" smooth="yes"/>
      <point x="91" y="387"/>
      <point x="160" y="329"/>
      <point x="187" y="302" type="curve" smooth="yes"/>
      <point x="202" y="287" type="line" smooth="yes"/>
      <point x="238" y="251"/>
      <point x="296" y="194"/>
      <point x="296" y="149" type="curve" smooth="yes"/>
      <point x="296" y="77"/>
      <point x="257" y="45"/>
    </contour>
    <contour>
      <point x="196" y="-1" type="curve" smooth="yes"/>
      <point x="284" y="-1"/>
      <point x="346" y="58"/>
      <point x="346" y="149" type="curve" smooth="yes"/>
      <point x="346" y="199"/>
      <point x="301" y="255"/>
      <point x="244" y="310" type="curve" smooth="yes"/>
      <point x="214" y="339" type="line" smooth="yes"/>
      <point x="190" y="363"/>
      <point x="141" y="406"/>
      <point x="141" y="451" type="curve" smooth="yes"/>
      <point x="141" y="504"/>
      <point x="195" y="522"/>
      <point x="239" y="522" type="curve" smooth="yes"/>
      <point x="288" y="522"/>
      <point x="331" y="518"/>
      <point x="331" y="465" type="curve" smooth="yes"/>
      <point x="331" y="421"/>
      <point x="260" y="376"/>
      <point x="190" y="325" type="curve" smooth="yes"/>
      <point x="93" y="254"/>
      <point x="61" y="209"/>
      <point x="61" y="133" type="curve" smooth="yes"/>
      <point x="61" y="54"/>
      <point x="120" y="-1"/>
    </contour>
  </outline>
</glyph>
<glyph name="B" format="2">
  <advance width="485"/>
  <unicode hex="0042"/>
  <outline>
    <contour>
      <point x="55" y="0" type="curve" smooth="yes"/>
      <point x="337.0" y="0.0"/>
      <point x="418" y="53"/>
      <point x="434" y="163" type="curve" smooth="yes"/>
      <point x="451" y="279"/>
      <point x="340" y="359"/>
      <point x="117" y="359" type="curve"/>
      <point x="109" y="320" type="line"/>
      <point x="316" y="320"/>
      <point x="396" y="248"/>
      <point x="385" y="169" type="curve" smooth="yes"/>
      <point x="372" y="73"/>
      <point x="266" y="47"/>
      <point x="89" y="46" type="curve"/>
      <point x="187" y="604" type="line"/>
      <point x="340" y="603"/>
      <point x="432" y="568"/>
      <point x="421" y="479" type="curve" smooth="yes"/>
      <point x="411" y="399"/>
      <point x="375" y="359"/>
      <point x="121" y="359" type="curve"/>
      <point x="115" y="327" type="line"/>
      <point x="404" y="327"/>
      <point x="457" y="373"/>
      <point x="471" y="477" type="curve" smooth="yes"/>
      <point x="487" y="595"/>
      <point x="384" y="650"/>
      <point x="169" y="650" type="curve"/>
      <point x="152" y="650"/>
      <point x="144" y="643"/>
      <point x="140" y="623" type="curve" smooth="yes"/>
      <point x="36" y="31" type="line" smooth="yes"/>
      <point x="33" y="16"/>
      <point x="41" y="0.0"/>
    </contour>
  </outline>
</glyph>
<glyph name="C" format="2">
  <advance width="521"/>
  <unicode hex="0043"/>
  <outline>
    <contour>
      <point x="230" y="0" type="curve" smooth="yes"/>
      <point x="316" y="0"/>
      <point x="383" y="45"/>
      <point x="440" y="108" type="curve" smooth="yes"/>
      <point x="465" y="135"/>
      <point x="467" y="147"/>
      <point x="466" y="154" type="curve" smooth="yes"/>
      <point x="464" y="166"/>
      <point x="455" y="172"/>
      <point x="443" y="172" type="curve" smooth="yes"/>
      <point x="427" y="172"/>
      <point x="421" y="155"/>
      <point x="401" y="137" type="curve" smooth="yes"/>
      <point x="346" y="85"/>
      <point x="296" y="46"/>
      <point x="231" y="46" type="curve" smooth="yes"/>
      <point x="159" y="46"/>
      <point x="85" y="136"/>
      <point x="114" y="304" type="curve" smooth="yes"/>
      <point x="134" y="419"/>
      <point x="182" y="604"/>
      <point x="357" y="604" type="curve" smooth="yes"/>
      <point x="403" y="604"/>
      <point x="452" y="583"/>
      <point x="497" y="536" type="curve" smooth="yes"/>
      <point x="510" y="523"/>
      <point x="524" y="526"/>
      <point x="532" y="535" type="curve" smooth="yes"/>
      <point x="540" y="544"/>
      <point x="538" y="560"/>
      <point x="529" y="569" type="curve" smooth="yes"/>
      <point x="480" y="620"/>
      <point x="420" y="650"/>
      <point x="358" y="650" type="curve" smooth="yes"/>
      <point x="146" y="650"/>
      <point x="89" y="447"/>
      <point x="64" y="305" type="curve" smooth="yes"/>
      <point x="29" y="108"/>
      <point x="134" y="0"/>
    </contour>
  </outline>
</glyph>
<glyph name="E" format="2">
  <advance width="495"/>
  <unicode hex="0045"/>
  <outline>
    <contour>
      <point x="58" y="0" type="curve" smooth="yes"/>
      <point x="393" y="0" type="line" smooth="yes"/>
      <point x="413" y="0"/>
      <point x="419" y="14"/>
      <point x="419" y="26" type="curve" smooth="yes"/>
      <point x="419" y="38"/>
      <point x="413" y="46"/>
      <point x="393" y="46" type="curve" smooth="yes"/>
      <point x="90" y="46" type="line"/>
      <point x="187" y="604" type="line"/>
      <point x="491" y="604" type="line" smooth="yes"/>
      <point x="511" y="604"/>
      <point x="517" y="613"/>
      <point x="517" y="625" type="curve" smooth="yes"/>
      <point x="517" y="637"/>
      <point x="511.0" y="650.0"/>
      <point x="491" y="650" type="curve" smooth="yes"/>
      <point x="170" y="650" type="line" smooth="yes"/>
      <point x="148" y="650"/>
      <point x="143" y="639"/>
      <point x="140" y="623" type="curve" smooth="yes"/>
      <point x="35" y="27" type="line" smooth="yes"/>
      <point x="32" y="12"/>
      <point x="40.0" y="0.0"/>
    </contour>
    <contour>
      <point x="110" y="304" type="line"/>
      <point x="399" y="304" type="line" smooth="yes"/>
      <point x="419.0" y="304.0"/>
      <point x="425" y="315"/>
      <point x="425" y="327" type="curve" smooth="yes"/>
      <point x="425" y="339"/>
      <point x="419.0" y="350.0"/>
      <point x="399" y="350" type="curve" smooth="yes"/>
      <point x="118" y="350" type="line"/>
    </contour>
  </outline>
</glyph>
<glyph name="L" format="2">
  <advance width="467"/>
  <unicode hex="004C"/>
  <outline>
    <contour>
      <point x="58" y="0" type="curve" smooth="yes"/>
      <point x="395" y="0" type="line" smooth="yes"/>
      <point x="413" y="0"/>
      <point x="421" y="14"/>
      <point x="421" y="26" type="curve" smooth="yes"/>
      <point x="421" y="38"/>
      <point x="413" y="46"/>
      <point x="395" y="46" type="curve" smooth="yes"/>
      <point x="89" y="46" type="line"/>
      <point x="190" y="619" type="line" smooth="yes"/>
      <point x="193" y="637"/>
      <point x="190" y="650"/>
      <point x="170" y="650" type="curve" smooth="yes"/>
      <point x="150" y="650"/>
      <point x="143" y="639"/>
      <point x="140" y="623" type="curve" smooth="yes"/>
      <point x="35" y="27" type="line" smooth="yes"/>
      <point x="32" y="12"/>
      <point x="40.0" y="0.0"/>
    </contour>
  </outline>
</glyph>
<glyph name="M" format="2">
  <advance width="814"/>
  <unicode hex="004D"/>
  <outline>
    <contour>
      <point x="1" y="0" type="curve" smooth="yes"/>
      <point x="12" y="0"/>
      <point x="25" y="7"/>
      <point x="34" y="25" type="curve" smooth="yes"/>
      <point x="314" y="569" type="line"/>
      <point x="304" y="572" type="line"/>
      <point x="345" y="24" type="line" smooth="yes"/>
      <point x="346" y="14"/>
      <point x="350" y="0.0"/>
      <point x="373" y="0" type="curve" smooth="yes"/>
      <point x="392.0" y="0.0"/>
      <point x="400" y="17"/>
      <point x="404" y="24" type="curve" smooth="yes"/>
      <point x="686" y="571" type="line"/>
      <point x="676" y="574" type="line"/>
      <point x="718" y="24" type="line" smooth="yes"/>
      <point x="719" y="14"/>
      <point x="724" y="0"/>
      <point x="745" y="0" type="curve" smooth="yes"/>
      <point x="761" y="0"/>
      <point x="769" y="11"/>
      <point x="768" y="26" type="curve" smooth="yes"/>
      <point x="719" y="622" type="line" smooth="yes"/>
      <point x="718" y="638"/>
      <point x="715" y="650"/>
      <point x="694" y="650.0" type="curve" smooth="yes"/>
      <point x="672.0" y="650.0"/>
      <point x="666" y="635"/>
      <point x="660" y="624" type="curve" smooth="yes"/>
      <point x="378" y="76" type="line"/>
      <point x="388" y="73" type="line"/>
      <point x="346" y="631" type="line" smooth="yes"/>
      <point x="345" y="639"/>
      <point x="339.0" y="650.0"/>
      <point x="321" y="650" type="curve" smooth="yes"/>
      <point x="304.0" y="650.0"/>
      <point x="297" y="639"/>
      <point x="290" y="625" type="curve" smooth="yes"/>
      <point x="-16" y="38" type="line" smooth="yes"/>
      <point x="-28.0" y="14.0"/>
      <point x="-15.0" y="0.0"/>
    </contour>
  </outline>
</glyph>
<glyph name="O" format="2">
  <advance width="524"/>
  <unicode hex="004F"/>
  <outline>
    <contour>
      <point x="240" y="0" type="curve" smooth="yes"/>
      <point x="412" y="0"/>
      <point x="489" y="256"/>
      <point x="512" y="387" type="curve" smooth="yes"/>
      <point x="541" y="551"/>
      <point x="488" y="650"/>
      <point x="346" y="650" type="curve" smooth="yes"/>
      <point x="168" y="650"/>
      <point x="92" y="467"/>
      <point x="68" y="329" type="curve" smooth="yes"/>
      <point x="40" y="167"/>
      <point x="67" y="0"/>
    </contour>
    <contour>
      <point x="239" y="46" type="curve" smooth="yes"/>
      <point x="106" y="46"/>
      <point x="96" y="202"/>
      <point x="117" y="319" type="curve" smooth="yes"/>
      <point x="133" y="406"/>
      <point x="195" y="604"/>
      <point x="341" y="604" type="curve" smooth="yes"/>
      <point x="474" y="604"/>
      <point x="482" y="495"/>
      <point x="462" y="381" type="curve" smooth="yes"/>
      <point x="443" y="271"/>
      <point x="355" y="46"/>
    </contour>
  </outline>
</glyph>
<glyph name="Q" format="2">
  <advance width="524"/>
  <unicode hex="0051"/>
  <outline>
    <contour>
      <point x="240" y="0" type="curve" smooth="yes"/>
      <point x="412" y="0"/>
      <point x="489" y="256"/>
      <point x="512" y="387" type="curve" smooth="yes"/>
      <point x="541" y="551"/>
      <point x="488" y="650"/>
      <point x="346" y="650" type="curve" smooth="yes"/>
      <point x="168" y="650"/>
      <point x="92" y="467"/>
      <point x="68" y="329" type="curve" smooth="yes"/>
      <point x="40" y="167"/>
      <point x="67" y="0"/>
    </contour>
    <contour>
      <point x="239" y="46" type="curve" smooth="yes"/>
      <point x="106" y="46"/>
      <point x="96" y="202"/>
      <point x="117" y="319" type="curve" smooth="yes"/>
      <point x="133" y="406"/>
      <point x="195" y="604"/>
      <point x="341" y="604" type="curve" smooth="yes"/>
      <point x="474" y="604"/>
      <point x="482" y="495"/>
      <point x="462" y="381" type="curve" smooth="yes"/>
      <point x="443" y="271"/>
      <point x="355" y="46"/>
    </contour>
    <contour>
      <point x="410" y="-77" type="curve" smooth="yes"/>
      <point x="424" y="-69"/>
      <point x="424" y="-50"/>
      <point x="416" y="-38" type="curve" smooth="yes"/>
      <point x="308" y="119" type="line" smooth="yes"/>
      <point x="298" y="133"/>
      <point x="280" y="140"/>
      <point x="266" y="128" type="curve" smooth="yes"/>
      <point x="254" y="119"/>
      <point x="256" y="107"/>
      <point x="267" y="91" type="curve" smooth="yes"/>
      <point x="371" y="-61" type="line" smooth="yes"/>
      <point x="381" y="-76"/>
      <point x="397" y="-84"/>
    </contour>
  </outline>
</glyph>
<glyph name="T" format="2">
  <advance width="510"/>
  <unicode hex="0054"/>
  <outline>
    <contour>
      <point x="228" y="0" type="curve" smooth="yes"/>
      <point x="250" y="0"/>
      <point x="253" y="15"/>
      <point x="255" y="25" type="curve" smooth="yes"/>
      <point x="359" y="619" type="line"/>
      <point x="308" y="619" type="line"/>
      <point x="205" y="27" type="line" smooth="yes"/>
      <point x="202" y="12"/>
      <point x="210" y="0"/>
    </contour>
    <contour>
      <point x="137" y="604" type="curve" smooth="yes"/>
      <point x="524" y="604" type="line" smooth="yes"/>
      <point x="544" y="604"/>
      <point x="550" y="615"/>
      <point x="550" y="627" type="curve" smooth="yes"/>
      <point x="550" y="639"/>
      <point x="544" y="650"/>
      <point x="524" y="650" type="curve" smooth="yes"/>
      <point x="137" y="650" type="line" smooth="yes"/>
      <point x="117" y="650"/>
      <point x="111" y="639"/>
      <point x="111" y="627" type="curve" smooth="yes"/>
      <point x="111" y="615"/>
      <point x="117" y="604"/>
    </contour>
  </outline>
</glyph>
<glyph name="U" format="2">
  <advance width="517"/>
  <unicode hex="0055"/>
  <outline>
    <contour>
      <point x="129" y="-4" type="curve" smooth="yes"/>
      <point x="238" y="-4"/>
      <point x="385" y="174"/>
      <point x="459" y="417" type="curve"/>
      <point x="458" y="520" type="line"/>
      <point x="374" y="246"/>
      <point x="234" y="42"/>
      <point x="137" y="42" type="curve" smooth="yes"/>
      <point x="90" y="42"/>
      <point x="100" y="116"/>
      <point x="112" y="180" type="curve" smooth="yes"/>
      <point x="192" y="622" type="line" smooth="yes"/>
      <point x="195" y="636"/>
      <point x="186" y="649"/>
      <point x="171" y="650" type="curve" smooth="yes"/>
      <point x="155" y="650"/>
      <point x="144" y="636"/>
      <point x="141" y="620" type="curve" smooth="yes"/>
      <point x="62" y="183" type="line" smooth="yes"/>
      <point x="38" y="52"/>
      <point x="70" y="-4"/>
    </contour>
    <contour>
      <point x="394" y="-1" type="curve" smooth="yes"/>
      <point x="406" y="-1"/>
      <point x="418" y="7"/>
      <point x="421" y="22" type="curve" smooth="yes"/>
      <point x="527" y="624" type="line" smooth="yes"/>
      <point x="530" y="639"/>
      <point x="523" y="650"/>
      <point x="503" y="650" type="curve" smooth="yes"/>
      <point x="485" y="650"/>
      <point x="478" y="638"/>
      <point x="476" y="626" type="curve" smooth="yes"/>
      <point x="371" y="27" type="line" smooth="yes"/>
      <point x="368" y="8"/>
      <point x="380" y="-1"/>
    </contour>
  </outline>
</glyph>
<glyph name="V" format="2">
  <advance width="417"/>
  <unicode hex="0056"/>
  <outline>
    <contour>
      <point x="151" y="0" type="curve" smooth="yes"/>
      <point x="170" y="0"/>
      <point x="174" y="11"/>
      <point x="181" y="25" type="curve" smooth="yes"/>
      <point x="474" y="618" type="line" smooth="yes"/>
      <point x="484" y="638"/>
      <point x="472" y="650"/>
      <point x="457" y="650" type="curve" smooth="yes"/>
      <point x="438" y="650"/>
      <point x="430" y="642"/>
      <point x="422" y="625" type="curve" smooth="yes"/>
      <point x="161" y="87" type="line"/>
      <point x="167" y="84" type="line"/>
      <point x="141" y="626" type="line" smooth="yes"/>
      <point x="141" y="636"/>
      <point x="136" y="650"/>
      <point x="114" y="650" type="curve"/>
      <point x="96" y="650"/>
      <point x="90" y="639"/>
      <point x="91" y="624" type="curve" smooth="yes"/>
      <point x="124" y="28" type="line" smooth="yes"/>
      <point x="125" y="15"/>
      <point x="133" y="0"/>
    </contour>
  </outline>
</glyph>
<glyph name="Y" format="2">
  <advance width="416"/>
  <unicode hex="0059"/>
  <outline>
    <contour>
      <point x="178" y="0" type="curve" smooth="yes"/>
      <point x="200" y="0"/>
      <point x="204" y="15"/>
      <point x="206" y="25" type="curve" smooth="yes"/>
      <point x="258" y="322" type="line"/>
      <point x="469" y="609" type="line" smooth="yes"/>
      <point x="474" y="616"/>
      <point x="477" y="623"/>
      <point x="477" y="629" type="curve" smooth="yes"/>
      <point x="477" y="640"/>
      <point x="465" y="650"/>
      <point x="454" y="650" type="curve" smooth="yes"/>
      <point x="444" y="650"/>
      <point x="435" y="647"/>
      <point x="428" y="637" type="curve" smooth="yes"/>
      <point x="224" y="356" type="line"/>
      <point x="249" y="352" type="line"/>
      <point x="142" y="630" type="line" smooth="yes"/>
      <point x="138" y="641"/>
      <point x="129" y="650"/>
      <point x="114" y="650" type="curve" smooth="yes"/>
      <point x="102" y="650"/>
      <point x="91" y="640"/>
      <point x="91" y="630" type="curve" smooth="yes"/>
      <point x="91" y="624"/>
      <point x="92" y="621"/>
      <point x="95" y="613" type="curve" smooth="yes"/>
      <point x="207" y="323" type="line"/>
      <point x="155" y="27" type="line" smooth="yes"/>
      <point x="152" y="12"/>
      <point x="160" y="0"/>
    </contour>
  </outline>
</glyph>
<glyph name="backslash" format="2">
  <advance width="283"/>
  <unicode hex="005C"/>
  <outline>
    <contour>
      <point x="215" y="0" type="curve" smooth="yes"/>
      <point x="230" y="0"/>
      <point x="239" y="13"/>
      <point x="236" y="31" type="curve" smooth="yes"/>
      <point x="122" y="627" type="line" smooth="yes"/>
      <point x="119" y="644"/>
      <point x="104" y="650"/>
      <point x="93" y="650" type="curve" smooth="yes"/>
      <point x="78" y="650"/>
      <point x="68" y="637"/>
      <point x="72" y="616" type="curve" smooth="yes"/>
      <point x="186" y="20" type="line" smooth="yes"/>
      <point x="189" y="5"/>
      <point x="204" y="0"/>
    </contour>
  </outline>
</glyph>
<glyph name="a" format="2">
  <advance width="356"/>
  <unicode hex="0061"/>
  <outline>
    <contour>
      <point x="109" y="-4" type="curve" smooth="yes"/>
      <point x="162" y="-4"/>
      <point x="221" y="49"/>
      <point x="261" y="158" type="curve"/>
      <point x="273" y="270" type="line"/>
      <point x="220" y="129"/>
      <point x="163" y="42"/>
      <point x="117" y="42" type="curve" smooth="yes"/>
      <point x="84" y="42"/>
      <point x="66" y="82"/>
      <point x="77" y="147" type="curve" smooth="yes"/>
      <point x="94" y="244"/>
      <point x="164" y="304"/>
      <point x="260" y="304" type="curve" smooth="yes"/>
      <point x="301" y="304" type="line"/>
      <point x="309" y="350" type="line"/>
      <point x="257" y="350" type="line" smooth="yes"/>
      <point x="137" y="350"/>
      <point x="49" y="272"/>
      <point x="26" y="147" type="curve" smooth="yes"/>
      <point x="9" y="54"/>
      <point x="44" y="-4"/>
    </contour>
    <contour>
      <point x="251" y="0" type="curve" smooth="yes"/>
      <point x="277" y="0"/>
      <point x="279" y="18"/>
      <point x="280" y="23" type="curve" smooth="yes"/>
      <point x="332" y="316" type="line" smooth="yes"/>
      <point x="335" y="334"/>
      <point x="333" y="350"/>
      <point x="317" y="350" type="curve" smooth="yes"/>
      <point x="287" y="350" type="line"/>
      <point x="229" y="23" type="line" smooth="yes"/>
      <point x="228" y="15"/>
      <point x="229" y="0"/>
    </contour>
  </outline>
</glyph>
<glyph name="h" format="2">
  <advance width="376"/>
  <unicode hex="0068"/>
  <outline>
    <contour>
      <point x="47" y="0" type="curve" smooth="yes"/>
      <point x="73" y="0"/>
      <point x="75" y="18"/>
      <point x="76" y="23" type="curve" smooth="yes"/>
      <point x="181" y="623" type="line" smooth="yes"/>
      <point x="184" y="640"/>
      <point x="180" y="650"/>
      <point x="163" y="650" type="curve"/>
      <point x="143" y="650"/>
      <point x="133" y="641"/>
      <point x="130" y="623" type="curve" smooth="yes"/>
      <point x="25" y="23" type="line" smooth="yes"/>
      <point x="24" y="15"/>
      <point x="25" y="0"/>
    </contour>
    <contour>
      <point x="272" y="0" type="curve" smooth="yes"/>
      <point x="298" y="0"/>
      <point x="299" y="16"/>
      <point x="300" y="21" type="curve" smooth="yes"/>
      <point x="337" y="230" type="line" smooth="yes"/>
      <point x="348" y="294"/>
      <point x="316" y="354"/>
      <point x="244" y="354" type="curve" smooth="yes"/>
      <point x="189" y="354"/>
      <point x="148" y="319"/>
      <point x="102" y="246" type="curve"/>
      <point x="92" y="174" type="line"/>
      <point x="154" y="270"/>
      <point x="199" y="308"/>
      <point x="241" y="308" type="curve" smooth="yes"/>
      <point x="285" y="308"/>
      <point x="293" y="267"/>
      <point x="287" y="233" type="curve" smooth="yes"/>
      <point x="250" y="24" type="line" smooth="yes"/>
      <point x="249" y="16"/>
      <point x="250" y="0"/>
    </contour>
  </outline>
</glyph>
<glyph name="o" format="2">
  <advance width="343"/>
  <unicode hex="006F"/>
  <outline>
    <contour>
      <point x="143" y="-4" type="curve" smooth="yes"/>
      <point x="237" y="-4"/>
      <point x="308" y="95"/>
      <point x="308" y="228" type="curve" smooth="yes"/>
      <point x="308" y="306"/>
      <point x="262" y="354"/>
      <point x="187" y="354" type="curve" smooth="yes"/>
      <point x="96" y="354"/>
      <point x="28" y="257"/>
      <point x="28" y="126" type="curve" smooth="yes"/>
      <point x="28" y="46"/>
      <point x="72" y="-4"/>
    </contour>
    <contour>
      <point x="143" y="42" type="curve" smooth="yes"/>
      <point x="103" y="42"/>
      <point x="78" y="80"/>
      <point x="78" y="136" type="curve" smooth="yes"/>
      <point x="78" y="232"/>
      <point x="125" y="308"/>
      <point x="187" y="308" type="curve" smooth="yes"/>
      <point x="231" y="308"/>
      <point x="258" y="275"/>
      <point x="258" y="227" type="curve" smooth="yes"/>
      <point x="258" y="123"/>
      <point x="209" y="42"/>
    </contour>
  </outline>
</glyph>
<glyph name="s" format="2">
  <advance width="305"/>
  <unicode hex="0073"/>
  <outline>
    <contour>
      <point x="137" y="-4" type="curve" smooth="yes"/>
      <point x="201" y="-4"/>
      <point x="249" y="35"/>
      <point x="249" y="88" type="curve" smooth="yes"/>
      <point x="249" y="125"/>
      <point x="236" y="145"/>
      <point x="218" y="162" type="curve" smooth="yes"/>
      <point x="196" y="184"/>
      <point x="170" y="195"/>
      <point x="143" y="214" type="curve" smooth="yes"/>
      <point x="121" y="229"/>
      <point x="98" y="246"/>
      <point x="98" y="265" type="curve" smooth="yes"/>
      <point x="98" y="289"/>
      <point x="124" y="304"/>
      <point x="165" y="304" type="curve" smooth="yes"/>
      <point x="197" y="304"/>
      <point x="224" y="285"/>
      <point x="236" y="279" type="curve" smooth="yes"/>
      <point x="253" y="270"/>
      <point x="271" y="272"/>
      <point x="279" y="284" type="curve" smooth="yes"/>
      <point x="287" y="297"/>
      <point x="279" y="314"/>
      <point x="259" y="325" type="curve" smooth="yes"/>
      <point x="223" y="346"/>
      <point x="192" y="350"/>
      <point x="165" y="350" type="curve" smooth="yes"/>
      <point x="93" y="350"/>
      <point x="48" y="318"/>
      <point x="48" y="265" type="curve" smooth="yes"/>
      <point x="48" y="226"/>
      <point x="80" y="194"/>
      <point x="109" y="176" type="curve" smooth="yes"/>
      <point x="136" y="159"/>
      <point x="161" y="144"/>
      <point x="175" y="133" type="curve" smooth="yes"/>
      <point x="188" y="122"/>
      <point x="199" y="110"/>
      <point x="199" y="91" type="curve" smooth="yes"/>
      <point x="199" y="63"/>
      <point x="173" y="42"/>
      <point x="137" y="42" type="curve" smooth="yes"/>
      <point x="105" y="42"/>
      <point x="73" y="63"/>
      <point x="58" y="74" type="curve" smooth="yes"/>
      <point x="43" y="85"/>
      <point x="23" y="85"/>
      <point x="16" y="73" type="curve" smooth="yes"/>
      <point x="6" y="56"/>
      <point x="20" y="45"/>
      <point x="37" y="32" type="curve" smooth="yes"/>
      <point x="71" y="7"/>
      <point x="110" y="-4"/>
    </contour>
  </outline>
</glyph>
<glyph name="t" format="2">
  <advance width="269"/>
  <unicode hex="0074"/>
  <outline>
    <contour>
      <point x="84" y="0" type="curve" smooth="yes"/>
      <point x="97" y="0"/>
      <point x="110" y="7"/>
      <point x="113" y="23" type="curve" smooth="yes"/>
      <point x="203" y="540" type="line" smooth="yes"/>
      <point x="206" y="558"/>
      <point x="192" y="568"/>
      <point x="178" y="568" type="curve" smooth="yes"/>
      <point x="167" y="568"/>
      <point x="157" y="561"/>
      <point x="154" y="547" type="curve" smooth="yes"/>
      <point x="61" y="24" type="line" smooth="yes"/>
      <point x="58" y="8"/>
      <point x="71" y="0"/>
    </contour>
    <contour>
      <point x="44" y="305" type="curve" smooth="yes"/>
      <point x="248" y="305" type="line" smooth="yes"/>
      <point x="268" y="305"/>
      <point x="274" y="316"/>
      <point x="274" y="328" type="curve" smooth="yes"/>
      <point x="274" y="340"/>
      <point x="268" y="350"/>
      <point x="248" y="350" type="curve" smooth="yes"/>
      <point x="44" y="350" type="line" smooth="yes"/>
      <point x="24" y="350"/>
      <point x="18" y="340"/>
      <point x="18" y="328" type="curve" smooth="yes"/>
      <point x="18" y="316"/>
      <point x="24" y="305"/>
    </contour>
  </outline>
</glyph>
<glyph name="approxequal" format="2">
  <advance width="426"/>
  <unicode hex="2248"/>
  <outline>
    <contour>
      <point x="104" y="132" type="curve" smooth="yes"/>
      <point x="119" y="138"/>
      <point x="137" y="145"/>
      <point x="150" y="145" type="curve" smooth="yes"/>
      <point x="191" y="145"/>
      <point x="225" y="117"/>
      <point x="263" y="117" type="curve" smooth="yes"/>
      <point x="289" y="117"/>
      <point x="315" y="127"/>
      <point x="333" y="134" type="curve" smooth="yes"/>
      <point x="348" y="140"/>
      <point x="355" y="151"/>
      <point x="350" y="164" type="curve" smooth="yes"/>
      <point x="345" y="177"/>
      <point x="333" y="181"/>
      <point x="317" y="175" type="curve" smooth="yes"/>
      <point x="302" y="169"/>
      <point x="284" y="162"/>
      <point x="271" y="162" type="curve" smooth="yes"/>
      <point x="233" y="162"/>
      <point x="199" y="190"/>
      <point x="158" y="190" type="curve" smooth="yes"/>
      <point x="132" y="190"/>
      <point x="106" y="180"/>
      <point x="88" y="173" type="curve" smooth="yes"/>
      <point x="73" y="167"/>
      <point x="66" y="156"/>
      <point x="71" y="143" type="curve" smooth="yes"/>
      <point x="76" y="130"/>
      <point x="88" y="126"/>
    </contour>
    <contour>
      <point x="142" y="283" type="curve" smooth="yes"/>
      <point x="157" y="289"/>
      <point x="175" y="296"/>
      <point x="188" y="296" type="curve" smooth="yes"/>
      <point x="229" y="296"/>
      <point x="263" y="268"/>
      <point x="301" y="268" type="curve" smooth="yes"/>
      <point x="327" y="268"/>
      <point x="353" y="278"/>
      <point x="371" y="285" type="curve" smooth="yes"/>
      <point x="386" y="291"/>
      <point x="393" y="302"/>
      <point x="388" y="315" type="curve" smooth="yes"/>
      <point x="383" y="328"/>
      <point x="371" y="332"/>
      <point x="355" y="326" type="curve" smooth="yes"/>
      <point x="340" y="320"/>
      <point x="322" y="313"/>
      <point x="309" y="313" type="curve" smooth="yes"/>
      <point x="271" y="313"/>
      <point x="237" y="341"/>
      <point x="196" y="341" type="curve" smooth="yes"/>
      <point x="170" y="341"/>
      <point x="144" y="331"/>
      <point x="126" y="324" type="curve" smooth="yes"/>
      <point x="111" y="318"/>
      <point x="104" y="307"/>
      <point x="109" y="294" type="curve" smooth="yes"/>
      <point x="114" y="281"/>
      <point x="126" y="277"/>
    </contour>
  </outline>
</glyph>
<glyph name="greaterequal" format="2">
  <advance width="426"/>
  <unicode hex="2265"/>
  <outline>
    <contour>
      <point x="93" y="129" type="curve" smooth="yes"/>
      <point x="320" y="129" type="line" smooth="yes"/>
      <point x="338" y="129"/>
      <point x="347" y="140"/>
      <point x="347" y="152" type="curve" smooth="yes"/>
      <point x="347" y="163"/>
      <point x="338" y="174"/>
      <point x="320" y="174" type="curve" smooth="yes"/>
      <point x="93" y="174" type="line" smooth="yes"/>
      <point x="75" y="174"/>
      <point x="66" y="162"/>
      <point x="66" y="151" type="curve" smooth="yes"/>
      <point x="66" y="140"/>
      <point x="75" y="129"/>
    </contour>
    <contour>
      <point x="119" y="234" type="curve" smooth="yes"/>
      <point x="346" y="234" type="line" smooth="yes"/>
      <point x="364" y="234"/>
      <point x="373" y="245"/>
      <point x="373" y="257" type="curve" smooth="yes"/>
      <point x="373" y="263"/>
      <point x="370" y="270"/>
      <point x="364" y="274" type="curve" smooth="yes"/>
      <point x="178" y="392" type="line" smooth="yes"/>
      <point x="162" y="402"/>
      <point x="149" y="401"/>
      <point x="141" y="391" type="curve" smooth="yes"/>
      <point x="133" y="380"/>
      <point x="136" y="366"/>
      <point x="151" y="356" type="curve" smooth="yes"/>
      <point x="297" y="263" type="line"/>
      <point x="302" y="279" type="line"/>
      <point x="119" y="279" type="line" smooth="yes"/>
      <point x="101" y="279"/>
      <point x="92" y="267"/>
      <point x="92" y="256" type="curve" smooth="yes"/>
      <point x="92" y="245"/>
      <point x="101" y="234"/>
    </contour>
  </outline>
</glyph>
